<svg width="48" height="48" viewBox="0 0 48 48" fill="none" xmlns="http://www.w3.org/2000/svg">
<g clip-path="url(#clip0_17_2362)">
<path fill-rule="evenodd" clip-rule="evenodd" d="M5.47719 15C3.64527 15 2.24111 16.6275 2.50958 18.4396L4.95669 34.9577C4.34465 36.1731 4 37.5463 4 39C4 43.9706 8.02944 48 13 48C16.9187 48 20.2524 45.4956 21.4879 42H30.5121C31.7476 45.4956 35.0813 48 39 48C43.9706 48 48 43.9706 48 39C48 36.1359 46.6621 33.5842 44.5772 31.9359L42.3439 22.6595C41.2623 18.1666 37.243 15 32.6217 15H19H5.47719Z" fill="#FFE145"/>
<path d="M47.25 40.5C47.25 38.046 45.9158 35.8215 43.8105 34.6335C44.0955 33.756 44.25 32.832 44.25 31.8832C44.25 28.2037 41.9347 24.8625 38.4885 23.5702L38.25 23.4802V22.083C38.6932 22.341 39.201 22.5 39.75 22.5H45.75V16.5H39.75C39.201 16.5 38.6932 16.659 38.25 16.917V16.5C38.25 15.2992 37.6672 14.1772 36.7095 13.476C36.5153 12.219 35.4352 11.25 34.125 11.25L24.9533 11.2492C26.0265 10.305 26.7593 8.98722 26.946 7.49847H29.2478C30.4883 7.49847 31.4978 6.48897 31.4978 5.24847C31.4978 4.00797 30.4883 2.99847 29.2478 2.99847H25.6672C24.5325 1.58697 22.821 0.748474 20.9977 0.748474C17.6895 0.748474 14.9977 3.44022 14.9977 6.74847C14.9977 8.97297 16.2172 10.914 18.0203 11.9505C16.4535 12.7252 15.2317 14.0872 14.6415 15.75H3C1.7595 15.75 0.75 16.7595 0.75 18V27C0.75 28.2405 1.7595 29.25 3 29.25H5.33325C4.3575 30.204 3.75 31.5315 3.75 33V34.5195C2.84475 35.2042 2.25 36.2797 2.25 37.5C2.25 39.5677 3.93225 41.25 6 41.25H7.57575C7.9245 42.9592 9.43875 44.25 11.25 44.25C13.0612 44.25 14.5755 42.9592 14.9242 41.25H35.3258C35.6745 42.9592 37.1888 44.25 39 44.25C40.8112 44.25 42.3255 42.9592 42.6742 41.25H47.25V40.5ZM42.75 31.8832C42.75 33.8542 41.9827 35.7075 40.5885 37.101L37.9395 39.75H35.25V16.2367C35.706 16.0185 36.087 15.6757 36.351 15.249C36.5985 15.6157 36.75 16.0447 36.75 16.5V24.5197L37.962 24.9742C40.8263 26.0482 42.75 28.8247 42.75 31.8832ZM32.1623 37.044L30.03 27.981C29.475 25.6192 27.57 23.835 25.1753 23.436L24.75 23.3647L24.7485 16.5H33.75V39.75H31.722C32.0625 39.2242 32.2493 38.6137 32.2485 37.9725V37.7925C32.2485 37.5435 32.2192 37.2922 32.1623 37.044ZM44.25 21H42.75V18H44.25V21ZM39.75 18H41.25V21H39.75C38.9227 21 38.25 20.3272 38.25 19.5C38.25 18.6727 38.9227 18 39.75 18ZM29.9985 5.24847C29.9985 5.66172 29.6625 5.99847 29.2485 5.99847H22.962L23.0903 5.74272C23.4743 4.97547 24.2453 4.49847 25.1033 4.49847H29.2485C29.6625 4.49847 29.9985 4.83522 29.9985 5.24847ZM20.9985 2.24847C22.0297 2.24847 23.013 2.60922 23.8013 3.23772C22.9237 3.56097 22.1842 4.19922 21.7485 5.07147L21.285 5.99847H16.566C16.9252 3.87372 18.7732 2.24847 20.9985 2.24847ZM16.566 7.49847H25.4303C25.0718 9.62322 23.2237 11.2485 20.9977 11.2485C18.7717 11.2485 16.9252 9.62322 16.566 7.49847ZM15.7485 18C15.7485 15.1042 18.1042 12.7485 21 12.7485L34.125 12.75C34.7453 12.75 35.25 13.2547 35.25 13.875C35.25 14.4952 34.7453 15 34.125 15H20.25V16.5H23.2485L23.25 24.6352L24.9292 24.9157C26.7247 25.2142 28.1535 26.553 28.5697 28.3237L30.7013 37.3845C30.7328 37.5202 30.7485 37.6567 30.7485 37.7925V37.9732C30.7485 38.448 30.564 38.8942 30.2288 39.2295C29.8927 39.5655 29.4473 39.75 28.9725 39.75C28.1558 39.75 27.4478 39.1965 27.249 38.4045L25.296 30.5902C24.8775 28.9177 23.382 27.75 21.6578 27.75L19.4977 27.7492C17.43 27.7492 15.7485 26.067 15.7485 23.9992V18ZM26.2207 39.75H23.25V33C23.25 31.5322 22.6425 30.2047 21.6683 29.2507C22.698 29.2552 23.5912 29.9542 23.8417 30.9532L25.7948 38.7675C25.8833 39.1245 26.0302 39.4545 26.2207 39.75ZM3 27.75C2.586 27.75 2.25 27.414 2.25 27V18C2.25 17.5867 2.586 17.25 3 17.25H14.2927C14.265 17.4967 14.2485 17.7465 14.2485 18V23.9992C14.2485 25.4677 14.8567 26.796 15.8317 27.75H15H9H3ZM11.25 42.75C10.2735 42.75 9.4485 42.1207 9.138 41.25H13.3612C13.0515 42.1207 12.2265 42.75 11.25 42.75ZM18.75 39.75H6C4.7595 39.75 3.75 38.7405 3.75 37.5C3.75 36.2595 4.7595 35.25 6 35.25H16.5C17.7405 35.25 18.75 36.2595 18.75 37.5V39.75ZM16.5 33.75H6C5.7435 33.75 5.49225 33.7762 5.25 33.8257V33C5.25 30.9322 6.93225 29.25 9 29.25H15H18C20.0677 29.25 21.75 30.9322 21.75 33V39.75H20.25V37.5C20.25 35.4322 18.5677 33.75 16.5 33.75ZM39 42.75C38.0235 42.75 37.1985 42.1207 36.888 41.25H41.1112C40.8015 42.1207 39.9765 42.75 39 42.75ZM40.0605 39.75L41.649 38.1615C42.2903 37.5202 42.819 36.7972 43.2308 36.018C44.568 36.8325 45.474 38.2012 45.6968 39.75H40.0605Z" fill="#B79C10"/>
<path d="M11.25 36.75H12.75V38.25H11.25V36.75Z" fill="#B79C10"/>
<path d="M5.25 36.75H6.75V38.25H5.25V36.75Z" fill="#B79C10"/>
<path d="M8.25 36.75H9.75V38.25H8.25V36.75Z" fill="#B79C10"/>
</g>
<defs>
<clipPath id="clip0_17_2362">
<rect width="48" height="48" fill="white"/>
</clipPath>
</defs>
</svg>
