<svg width="24" height="24" viewBox="0 0 24 24" fill="none" xmlns="http://www.w3.org/2000/svg">
<path fill-rule="evenodd" clip-rule="evenodd" d="M12.0001 3.12705C14.8919 3.12705 15.2313 3.13994 16.3743 3.1915C17.4313 3.23877 18.0028 3.41494 18.3853 3.56533C18.8923 3.76299 19.2532 3.99502 19.6313 4.37314C20.0095 4.75127 20.2458 5.11221 20.4392 5.61924C20.5853 6.00166 20.7657 6.57314 20.813 7.63018C20.8646 8.77314 20.8774 9.1126 20.8774 12.0044C20.8774 14.8962 20.8646 15.2356 20.813 16.3786C20.7657 17.4356 20.5896 18.0071 20.4392 18.3896C20.2415 18.8966 20.0095 19.2575 19.6313 19.6356C19.2532 20.0138 18.8923 20.2501 18.3853 20.4435C18.0028 20.5896 17.4313 20.77 16.3743 20.8173C15.2313 20.8688 14.8919 20.8817 12.0001 20.8817C9.1083 20.8817 8.76885 20.8688 7.62588 20.8173C6.56885 20.77 5.99736 20.5938 5.61494 20.4435C5.10791 20.2458 4.74697 20.0138 4.36885 19.6356C3.99072 19.2575 3.75439 18.8966 3.56104 18.3896C3.41494 18.0071 3.23447 17.4356 3.18721 16.3786C3.13564 15.2356 3.12275 14.8962 3.12275 12.0044C3.12275 9.1126 3.13564 8.77314 3.18721 7.63018C3.23447 6.57314 3.41064 6.00166 3.56104 5.61924C3.75869 5.11221 3.99072 4.75127 4.36885 4.37314C4.74697 3.99502 5.10791 3.75869 5.61494 3.56533C5.99736 3.41924 6.56885 3.23877 7.62588 3.1915C8.76885 3.13564 9.1083 3.12705 12.0001 3.12705ZM12.0001 1.17627C9.06103 1.17627 8.6915 1.18916 7.53564 1.24072C6.38408 1.29229 5.59775 1.47705 4.91025 1.74346C4.19697 2.01846 3.59541 2.39229 2.99385 2.99385C2.39229 3.59541 2.02275 4.20127 1.74346 4.91025C1.47705 5.59775 1.29229 6.38408 1.24072 7.53994C1.18916 8.6915 1.17627 9.06103 1.17627 12.0001C1.17627 14.9392 1.18916 15.3087 1.24072 16.4646C1.29229 17.6161 1.47705 18.4024 1.74346 19.0942C2.01846 19.8075 2.39229 20.4091 2.99385 21.0106C3.59541 21.6122 4.20127 21.9817 4.91025 22.261C5.59775 22.5274 6.38408 22.7122 7.53994 22.7638C8.6958 22.8153 9.06104 22.8282 12.0044 22.8282C14.9478 22.8282 15.313 22.8153 16.4688 22.7638C17.6204 22.7122 18.4067 22.5274 19.0985 22.261C19.8118 21.986 20.4134 21.6122 21.0149 21.0106C21.6165 20.4091 21.986 19.8032 22.2653 19.0942C22.5317 18.4067 22.7165 17.6204 22.7681 16.4646C22.8196 15.3087 22.8325 14.9435 22.8325 12.0001C22.8325 9.05674 22.8196 8.6915 22.7681 7.53564C22.7165 6.38408 22.5317 5.59775 22.2653 4.90596C21.9903 4.19268 21.6165 3.59111 21.0149 2.98955C20.4134 2.38799 19.8075 2.01846 19.0985 1.73916C18.411 1.47275 17.6247 1.28799 16.4688 1.23643C15.3087 1.18916 14.9392 1.17627 12.0001 1.17627ZM12.0001 6.43994C8.93213 6.43994 6.43994 8.92783 6.43994 12.0001C6.43994 15.0724 8.93213 17.5603 12.0001 17.5603C15.0681 17.5603 17.5603 15.0681 17.5603 12.0001C17.5603 8.93213 15.0681 6.43994 12.0001 6.43994ZM12.0001 15.6095C10.0063 15.6095 8.39072 13.9938 8.39072 12.0001C8.39072 10.0063 10.0063 8.39072 12.0001 8.39072C13.9938 8.39072 15.6095 10.0063 15.6095 12.0001C15.6095 13.9938 13.9938 15.6095 12.0001 15.6095ZM19.0768 6.22081C19.0768 6.93749 18.4958 7.51847 17.7791 7.51847C17.0624 7.51847 16.4814 6.93749 16.4814 6.22081C16.4814 5.50414 17.0624 4.92316 17.7791 4.92316C18.4958 4.92316 19.0768 5.50414 19.0768 6.22081Z" fill="#D4D7E6"/>
</svg>
