<svg width="48" height="48" viewBox="0 0 48 48" fill="none" xmlns="http://www.w3.org/2000/svg">
<path d="M47.8 20.2C47.8 20.9 47.8 21.5 47.8 22.2C47.8 22.3 47.7 22.3 47.7 22.4C47.5 24.4 46.8 26.3 45.7 28C44.9 29.3 43.8 30.3 42.8 31.4C37.8 36.4 32.7 41.3 27.7 46.3C27.3 46.7 26.8 47.1 26.3 47.5C26.1 47.5 26 47.5 25.8 47.5C25.6 47.3 25.3 47.2 25.1 47C19.4 41.4 13.7 35.8 8.09999 30.2C6.39999 28.5 5.19999 26.4 4.69999 24.1C4.49999 23.4 4.49999 22.8 4.39999 22.1C4.39999 21.4 4.39999 20.8 4.39999 20.1C4.39999 19.8 4.49999 19.5 4.49999 19.2C5.39999 13.3 10.6 8.59998 16.5 8.29998C19.1 8.19998 21.5 8.69998 23.8 9.89998C23.9434 10.0433 26.4312 9.99998 28.1 9.99998C28.2 9.99998 28.3 9.89998 28.4 9.79998C31.2 8.29998 34.3 7.69998 37.4 8.39998C42.6 9.59998 46.1 12.7 47.5 18C47.6 18.7 47.7 19.5 47.8 20.2Z" fill="#FFE145"/>
<path fill-rule="evenodd" clip-rule="evenodd" d="M23.9 21.9L23 26.1H25.9L25.1 22L23.9 21.9Z" fill="white"/>
<path fill-rule="evenodd" clip-rule="evenodd" d="M25.6 9.7C25.7 9.6 25.8 9.6 25.9 9.5C27.7 8.5 29.6 7.9 31.7 7.8C35 7.6 38 8.6 40.6 10.7C43.3 12.9 44.9 15.8 45.4 19.2C45.9 23.1 44.8 26.5 42.3 29.5C41.1 30.9 39.7 32.2 38.3 33.6C33.7 38.2 29.2 42.7 24.6 47.3C23.9 48 23.5 48 22.8 47.3C17.1 41.6 11.5 36 5.80001 30.3C3.50001 28 2.20001 25.2 2.00001 21.9C1.70001 18.4 2.80001 15.3 5.00001 12.6C7.30001 9.7 10.4 8.2 14.1 7.9C16.8 7.6 19.3 8.3 21.6 9.6C21.7 9.6 21.8 9.7 21.9 9.8C22.105 8.57 22.3 7.24205 22.3 6C22.3 5.8 22.2 5.5 22.1 5.3C21.7 4.8 21.6 4.4 21.9 3.8C22.2 3.2 22.6 2.6 23 2C23.1241 1.81389 23.2 1.9 23.2 1.3C23.2 1.1 23.2 0.9 23.2 0.6C23.2 0.3 23.5 0 23.8 0C24.1 0 24.4 0.2 24.4 0.6C24.4 1.1 24.4 1.6 24.4 1.1C24.4 1.3 24.5 1.8 24.6 2C25.0447 2.74117 25.3224 3.28366 25.8 4C26 4.4 26 4.7 25.7 5C25.3 5.4 25.2 5.8 25.3 6.3C25.357 7.43971 25.6 8.5568 25.6 9.7ZM16.3 34.8C15.6 34.8 14.9 34.8 14.2 34.8C13.9 34.8 13.7 34.8 13.5 34.5C13.3 34.2 13.5 34 13.6 33.7C13.9 33.3 14.1 33 14.4 32.6C15.6 30.7 16.8 28.8 18 26.9C18.2 26.6 18.2 26.5 17.8 26.5C17.4 26.5 17.2 26.2 17.2 25.9C17.2 25.6 17.4 25.3 17.8 25.3C18.1 25.3 18.3 25.3 18.6 25.3C18.7 25.3 18.9 25.2 19 25.1C19.4 24.2 19.9 23.3 20.2 22.4C20.5 21.7 20.7 21 20.9 20.3C21 19.9 20.9 19.8 20.6 19.8C20.4 19.8 20.3 19.8 20.1 19.8C19.7 19.8 19.5 19.5 19.5 19.2C19.5 18.8 19.7 18.6 20.2 18.6C20.4 18.6 20.6 18.6 20.8 18.6C21.4 18.6 21.4 18.6 21.5 18C21.7 16.3 21.9 14.6 22 12.9C22.1 11.6 22.1 11.6 20.9 10.9C18.7 9.7 16.3 9.3 13.8 9.6C10.1 10.1 7.30001 12 5.40001 15.2C4.10001 17.4 3.80001 19.8 4.10001 22.4C4.40001 24.9 5.50001 27.1 7.30001 28.9C9.00001 30.6 10.8 32.4 12.5 34.1C16.2 37.8 19.9 41.5 23.5 45.1C23.8 45.4 24.1 45.4 24.4 45.1C29.6 40 34.7 34.8 39.9 29.7C41 28.6 42 27.5 42.7 26.1C43.9 23.8 44.1 21.3 43.8 18.8C43.5 16.6 42.4 14.6 40.9 13C39.8 11.9 38.6 11 37.2 10.4C35 9.5 32.8 9.3 30.5 9.7C28.9 10 27.5 10.6 26.2 11.5C26 11.6 25.9 11.8 26 12C26.2 13.9 26.4 15.7 26.5 17.6C26.5 17.8 26.5 18.1 26.6 18.3C26.6 18.4 26.8 18.5 26.9 18.5C27.2 18.5 27.5 18.5 27.7 18.5C28.1 18.5 28.4 18.7 28.4 19.1C28.4 19.4 28.1 19.7 27.8 19.7C27.6 19.7 27.4 19.7 27.2 19.7C26.9 19.7 26.8 19.8 26.9 20.1C27.1 20.7 27.2 21.2 27.4 21.8C27.8 22.8 28.2 23.8 28.6 24.7C28.8 25.1 29 25.3 29.4 25.2C29.5 25.2 29.6 25.2 29.8 25.2C30.2 25.2 30.5 25.4 30.5 25.8C30.5 26.2 30.3 26.4 29.8 26.5C29.5 26.5 29.5 26.6 29.6 26.8C30.1 27.7 30.6 28.6 31.2 29.5C32.1 30.9 33.1 32.3 34 33.7C34.2 33.9 34.3 34.2 34.1 34.4C33.9 34.7 33.7 34.7 33.5 34.7C32.7 34.7 31.9 34.7 31.1 34.7C30.4 34.7 29.8 34.7 29.1 34.7C28.8 34.7 28.6 34.5 28.5 34.2C28.3 33.6 28.1 33 27.9 32.5C26.8 30.4 25.3 29.7 23.1 30C22.6 30.1 22.1 30.3 21.7 30.5C20.4 31.3 19.7 32.7 19.3 34.1C19.2 34.6 19 34.7 18.6 34.7C17.7 34.8 17 34.8 16.3 34.8ZM23.8 19.8C23.4 19.8 22.9 19.8 22.5 19.8C22.4 19.8 22.2 19.9 22.2 20C22.1 20.2 22.1 20.5 22 20.7C21.7 22 21.2 23.3 20.6 24.5C20 25.7 19.4 26.9 18.7 28.1C17.7 29.8 16.6 31.4 15.5 33.1C15.4 33.2 15.4 33.3 15.4 33.4C15.5 33.4 15.6 33.5 15.7 33.5C16.3 33.5 17 33.5 17.6 33.5C17.8 33.5 18 33.4 18 33.2C18.2 32.8 18.4 32.3 18.6 31.9C19.1 30.9 19.7 30.1 20.6 29.5C22.1 28.6 23.7 28.4 25.3 28.9C26.7 29.3 27.8 30.2 28.5 31.5C28.8 32 29 32.6 29.3 33.1C29.4 33.3 29.5 33.4 29.7 33.4C30.4 33.4 31.1 33.4 31.8 33.4C31.9 33.4 32.1 33.4 32.1 33.3C32.1 33.2 32.1 33.1 32 33C31.4 32.1 30.7 31.1 30.1 30.2C28.7 28 27.5 25.8 26.5 23.5C26 22.3 25.7 21.1 25.3 19.9C25.2 19.7 25.2 19.6 25 19.6C24.6 19.8 24.2 19.8 23.8 19.8ZM23 12.7C22.9 13.5 22.8 14.2 22.8 14.9C22.7 16 22.6 17.1 22.4 18.1C22.4 18.4 22.4 18.5 22.7 18.5C23.4 18.5 24.1 18.5 24.7 18.5C25 18.5 25.1 18.4 25 18.1C24.9 17.1 24.7 16.1 24.6 15C24.5 14.2 24.4 13.5 24.4 12.6C24 13.2 23.5 13.2 23 12.7ZM23.8 2.7L22.7791 4.6C22.7791 4.6 23.5075 5.22251 23.6 5.5C23.6 5.5 23.398 8.83005 23.3 10.3C23.3 10.6 23.5 10.8 23.7 10.9C23.9 11 24.1 10.9 24.3 10.8C24.5 10.6 24.5 10.4 24.5 10.2C24.4 7.7 24 5.5 24 5.5L25 4.5L23.8 2.7Z" fill="#B79C10"/>
<path fill-rule="evenodd" clip-rule="evenodd" d="M12.9 12.1C13.4 12.1 13.8 12.5 13.8 12.9C13.9 13.3 13.6 13.6 13.2 13.8C12.6 14 12 14.2 11.4 14.6C9.2 16 7.9 18 7.9 20.6C7.9 21.3 8 22.1 8.1 22.8C8.1 23.2 7.8 23.7 7.4 23.8C7 23.9 6.5 23.7 6.4 23.2C6.1 22.3 6 21.3 6 20.4C6.1 19 6.5 17.7 7.1 16.5C8.2 14.6 9.7 13.2 11.7 12.4C12.2 12.3 12.6 12.2 12.9 12.1Z" fill="#B79C10"/>
<path fill-rule="evenodd" clip-rule="evenodd" d="M23.8 26.8C23.3 26.8 22.7 26.8 22.2 26.8C21.7 26.8 21.4 26.5 21.5 26C21.7 25.2 21.9 24.4 22.1 23.7C22.2 23.1 22.3 22.5 22.4 21.8C22.5 21.4 22.6 21.1 23.1 21.1C23.6 21.1 24.1 21.1 24.5 21.1C24.9 21.1 25.1 21.3 25.2 21.7C25.5 23.1 25.8 24.5 26.1 26C26.2 26.6 26 26.9 25.4 26.9C24.8 26.8 24.3 26.8 23.8 26.8ZM23.7 25.5C23.9 25.5 24.2 25.5 24.4 25.5C24.6 25.5 24.6 25.4 24.6 25.2C24.4 24.3 24.2 23.5 24 22.6C24 22.4 24 22.2 23.7 22.2C23.4 22.2 23.4 22.4 23.4 22.6C23.3 23.3 23.2 23.9 23 24.6C22.9 25.5 22.8 25.5 23.7 25.5Z" fill="#B79C10"/>
<path fill-rule="evenodd" clip-rule="evenodd" d="M34.3 11.2C33.8 11.2 33.4 11.6 33.4 12C33.3 12.4 33.6 12.7 34 12.9C34.6 13.1 35.2 13.3 35.8 13.7C38 15.1 39.3 17.1 39.3 19.7C39.3 20.4 39.2 21.2 39.1 21.9C39.1 22.3 39.4 22.8 39.8 22.9C40.2 23 40.7 22.8 40.8 22.3C41.1 21.4 41.2 20.4 41.2 19.5C41.1 18.1 40.7 16.8 40.1 15.6C39 13.7 37.5 12.3 35.5 11.5C35 11.4 34.6 11.3 34.3 11.2Z" fill="white"/>
</svg>
